<svg width="20" height="18" viewBox="0 0 20 18" fill="none" xmlns="http://www.w3.org/2000/svg">
<g clip-path="url(#clip0_882_408)">
<path d="M13.9938 9.35795C13.9938 11.267 12.203 12.8147 9.9939 12.8147C7.78483 12.8147 5.99414 11.267 5.99414 9.35795C5.99414 7.44888 7.78483 5.90137 9.9939 5.90137C12.203 5.90137 13.9938 7.44888 13.9938 9.35795Z" fill="#4B5563"/>
<path d="M19.4001 8.83939H18.0627C17.7621 5.38787 14.5879 2.64428 10.594 2.38415V1.23459C10.594 0.948191 10.3252 0.716064 9.994 0.716064C9.66259 0.716064 9.39399 0.948191 9.39399 1.23459V2.38415C5.3999 2.64428 2.22555 5.38787 1.9249 8.83939H0.60001C0.268604 8.83939 0 9.07167 0 9.35792C0 9.64432 0.268604 9.87644 0.60001 9.87644H1.9249C2.22555 13.328 5.3999 16.0715 9.3938 16.3317V17.4816C9.3938 17.768 9.66241 18.0001 9.99381 18.0001C10.325 18.0001 10.5936 17.768 10.5936 17.4816V16.3317C14.5877 16.0717 17.7621 13.3281 18.0627 9.87644H19.4001C19.7315 9.87644 20.0001 9.64432 20.0001 9.35792C20.0001 9.07167 19.7315 8.83939 19.4001 8.83939ZM9.99381 15.3206C6.18338 15.3204 3.09453 12.6507 3.09453 9.35776C3.09471 6.06463 6.18393 3.39525 9.99436 3.39525C13.805 3.39525 16.894 6.06495 16.894 9.35792C16.8894 12.6496 13.8028 15.3169 9.99381 15.3206Z" fill="#4B5563"/>
</g>
<defs>
<clipPath id="clip0_882_408">
<rect width="20" height="17.284" fill="white" transform="translate(0 0.716064)"/>
</clipPath>
</defs>
</svg>
