<svg width="20" height="18" viewBox="0 0 20 18" fill="none" xmlns="http://www.w3.org/2000/svg">
<g clip-path="url(#clip0_882_486)">
<path d="M9.99994 0.716064C4.47711 0.716064 0 4.58517 0 9.35799C0 14.1308 4.47711 18.0001 9.99994 18.0001C15.5228 18.0001 20.0001 14.1308 20.0001 9.35799C19.9938 4.58739 15.5204 0.721445 9.99994 0.716064ZM9.99994 2.44451C13.2947 2.43486 16.2552 4.18214 17.4439 6.83755C15.1047 5.92768 12.5651 5.46704 9.99994 5.48714C7.435 5.46704 4.89532 5.92768 2.55615 6.83755C3.74487 4.18214 6.70532 2.43486 9.99994 2.44451ZM8.35309 16.1235C4.8717 15.4811 2.29669 12.9326 2.02936 9.86483C5.01562 9.86483 8.35309 13.301 8.35309 16.1235ZM9.99994 10.6543C9.17157 10.6543 8.49994 10.074 8.49994 9.35799C8.49994 8.64211 9.17157 8.06169 9.99994 8.06169C10.8285 8.06169 11.4999 8.64211 11.4999 9.35799C11.4999 10.074 10.8285 10.6543 9.99994 10.6543ZM11.647 16.1235C11.647 13.301 14.9844 9.86483 17.9709 9.86483C17.7034 12.9326 15.1284 15.4811 11.647 16.1235Z" fill="#4B5563"/>
</g>
<defs>
<clipPath id="clip0_882_486">
<rect width="20" height="17.284" fill="white" transform="translate(0 0.716064)"/>
</clipPath>
</defs>
</svg>
